<?xml version="1.0" encoding="UTF-8"?>
<svg xmlns="http://www.w3.org/2000/svg" xmlns:xlink="http://www.w3.org/1999/xlink" width="400px" height="280px" viewBox="0 0 400 280" version="1.1">
<g id="surface1">
<path style=" stroke:none;fill-rule:nonzero;fill:rgb(58.039216%,58.039216%,58.039216%);fill-opacity:1;" d="M 118.886719 116.796875 L 118.875 159.1875 L 119.304688 159.1875 L 338.402344 159.199219 L 338.410156 116.808594 L 118.886719 116.796875 "/>
<path style=" stroke:none;fill-rule:nonzero;fill:rgb(100%,100%,100%);fill-opacity:1;" d="M 127.089844 121.039062 L 127.085938 154.945312 L 127.480469 154.945312 L 327.449219 154.960938 L 327.464844 121.050781 L 127.089844 121.039062 "/>
<path style=" stroke:none;fill-rule:nonzero;fill:rgb(58.039216%,58.039216%,58.039216%);fill-opacity:1;" d="M 134.058594 125.1875 L 134.058594 151.21875 L 320.847656 151.21875 L 320.847656 125.1875 L 134.058594 125.1875 "/>
<path style=" stroke:none;fill-rule:nonzero;fill:rgb(100%,100%,100%);fill-opacity:1;" d="M 203.695312 129.792969 L 203.695312 131.398438 L 207.105469 131.40625 L 207.117188 129.792969 Z M 233.3125 133.914062 C 233.3125 133.914062 233.3125 133.914062 233.316406 133.914062 C 234.050781 133.914062 234.5625 134.101562 234.859375 134.480469 C 235.144531 134.859375 235.292969 135.464844 235.285156 136.296875 L 235.277344 140.257812 C 235.261719 141.558594 234.980469 142.355469 234.417969 142.640625 C 234.160156 142.769531 233.792969 142.839844 233.332031 142.839844 C 233.332031 142.839844 233.324219 142.839844 233.324219 142.839844 C 232.445312 142.839844 231.84375 142.640625 231.527344 142.226562 C 231.199219 141.832031 231.042969 141.179688 231.042969 140.269531 L 231.058594 136.277344 C 231.0625 135.78125 231.105469 135.367188 231.195312 135.046875 C 231.269531 134.71875 231.460938 134.453125 231.753906 134.234375 C 232.058594 134.019531 232.582031 133.914062 233.3125 133.914062 Z M 169.878906 133.859375 C 169.878906 133.859375 169.886719 133.859375 169.886719 133.859375 C 170.328125 133.859375 170.691406 133.914062 170.964844 134.027344 C 171.644531 134.285156 171.976562 135.03125 171.972656 136.25 L 171.957031 141.628906 C 171.957031 142.410156 171.820312 143.019531 171.550781 143.445312 C 171.292969 143.863281 170.738281 144.074219 169.859375 144.074219 C 169.839844 144.074219 169.816406 144.074219 169.792969 144.074219 C 169.386719 144.074219 169.042969 144.019531 168.765625 143.910156 C 168.082031 143.648438 167.742188 142.886719 167.746094 141.625 L 167.757812 136.25 C 167.761719 135.488281 167.898438 134.902344 168.160156 134.480469 C 168.417969 134.074219 168.992188 133.859375 169.878906 133.859375 Z M 270.3125 133.9375 C 270.3125 133.9375 270.3125 133.9375 270.316406 133.9375 C 270.761719 133.9375 271.113281 133.992188 271.394531 134.101562 C 272.066406 134.363281 272.402344 135.105469 272.398438 136.332031 L 272.378906 141.707031 C 272.378906 142.488281 272.246094 143.089844 271.980469 143.515625 C 271.722656 143.941406 271.160156 144.152344 270.292969 144.152344 C 270.292969 144.152344 270.292969 144.152344 270.285156 144.152344 C 270.269531 144.152344 270.246094 144.152344 270.222656 144.152344 C 269.8125 144.152344 269.472656 144.097656 269.191406 143.992188 C 268.507812 143.722656 268.167969 142.964844 268.167969 141.699219 L 268.183594 136.320312 C 268.183594 135.5625 268.324219 134.972656 268.589844 134.558594 C 268.847656 134.144531 269.417969 133.9375 270.3125 133.9375 Z M 285.46875 133.949219 C 285.46875 133.949219 285.472656 133.949219 285.472656 133.949219 C 285.917969 133.949219 286.269531 134.007812 286.550781 134.109375 C 287.222656 134.375 287.558594 135.121094 287.554688 136.335938 L 287.535156 141.722656 C 287.535156 142.5 287.402344 143.101562 287.136719 143.53125 C 286.878906 143.953125 286.316406 144.160156 285.449219 144.160156 C 285.425781 144.160156 285.402344 144.160156 285.378906 144.160156 C 284.96875 144.160156 284.628906 144.109375 284.355469 144 C 283.664062 143.734375 283.324219 142.976562 283.332031 141.710938 L 283.339844 136.332031 C 283.347656 135.574219 283.480469 134.988281 283.746094 134.570312 C 284.003906 134.160156 284.574219 133.949219 285.46875 133.949219 Z M 187.167969 132.402344 C 186.183594 132.402344 185.347656 132.546875 184.667969 132.832031 C 183.976562 133.105469 183.523438 133.464844 183.285156 133.894531 L 183.292969 132.566406 L 179.894531 132.566406 L 179.855469 145.390625 L 183.253906 145.394531 L 183.28125 135.402344 C 183.285156 134.941406 183.492188 134.582031 183.917969 134.308594 C 184.339844 134.050781 184.945312 133.914062 185.738281 133.914062 C 185.738281 133.914062 185.746094 133.914062 185.746094 133.914062 C 187.046875 133.917969 187.691406 134.351562 187.691406 135.207031 L 187.667969 145.394531 L 191.082031 145.398438 L 191.109375 135.113281 C 191.222656 134.320312 192.03125 133.925781 193.527344 133.925781 C 193.535156 133.925781 193.535156 133.925781 193.539062 133.925781 C 194.859375 133.925781 195.523438 134.359375 195.523438 135.226562 L 195.488281 145.40625 L 198.894531 145.40625 L 198.921875 135.273438 C 198.921875 134.339844 198.582031 133.625 197.902344 133.140625 C 197.214844 132.652344 196.21875 132.410156 194.898438 132.410156 C 194.898438 132.410156 194.894531 132.410156 194.894531 132.410156 C 193.957031 132.410156 193.125 132.523438 192.394531 132.761719 C 191.675781 132.996094 191.105469 133.304688 190.683594 133.707031 C 190.089844 132.839844 188.917969 132.40625 187.171875 132.402344 C 187.171875 132.402344 187.167969 132.402344 187.167969 132.402344 Z M 203.691406 132.578125 L 203.648438 145.410156 L 207.050781 145.414062 L 207.085938 132.578125 Z M 219.597656 132.429688 C 218.496094 132.429688 217.570312 132.578125 216.820312 132.878906 C 216.082031 133.179688 215.597656 133.53125 215.371094 133.945312 L 215.378906 132.589844 L 211.980469 132.585938 L 211.941406 145.417969 L 215.339844 145.417969 L 215.371094 135.363281 C 215.371094 134.878906 215.605469 134.511719 216.058594 134.261719 C 216.507812 134.023438 217.074219 133.894531 217.761719 133.894531 C 218.449219 133.894531 218.980469 134.007812 219.371094 134.226562 C 219.757812 134.445312 219.949219 134.765625 219.949219 135.203125 L 219.917969 145.417969 L 223.316406 145.429688 L 223.347656 135.191406 C 223.351562 134.285156 223.003906 133.589844 222.3125 133.121094 C 221.621094 132.660156 220.726562 132.429688 219.605469 132.429688 C 219.601562 132.429688 219.601562 132.429688 219.597656 132.429688 Z M 303.097656 132.492188 C 302 132.492188 301.074219 132.644531 300.316406 132.945312 C 299.574219 133.238281 299.09375 133.597656 298.875 134.007812 L 298.878906 132.652344 L 295.472656 132.648438 L 295.441406 145.480469 L 298.839844 145.480469 L 298.871094 135.433594 C 298.875 134.941406 299.09375 134.570312 299.550781 134.328125 C 300.003906 134.089844 300.574219 133.960938 301.253906 133.960938 C 301.253906 133.960938 301.261719 133.960938 301.261719 133.960938 C 301.945312 133.964844 302.484375 134.074219 302.867188 134.285156 C 303.253906 134.503906 303.449219 134.828125 303.449219 135.261719 L 303.417969 145.484375 L 306.820312 145.488281 L 306.847656 135.257812 C 306.847656 134.34375 306.503906 133.652344 305.808594 133.1875 C 305.125 132.726562 304.222656 132.492188 303.109375 132.492188 C 303.105469 132.492188 303.097656 132.492188 303.097656 132.492188 Z M 155.285156 132.386719 C 153.558594 132.386719 152.242188 132.648438 151.351562 133.167969 C 150.9375 133.410156 150.570312 133.789062 150.230469 134.308594 C 149.910156 134.824219 149.746094 135.632812 149.746094 136.746094 L 149.738281 141.039062 C 149.730469 141.84375 149.824219 142.542969 149.996094 143.128906 C 150.484375 144.726562 152.183594 145.523438 155.082031 145.523438 C 155.085938 145.523438 155.089844 145.523438 155.097656 145.523438 C 156.917969 145.523438 158.28125 145.253906 159.183594 144.71875 C 160.070312 144.175781 160.523438 143.035156 160.527344 141.28125 L 160.527344 140.445312 L 157.183594 140.445312 L 157.183594 141.6875 C 157.175781 142.75 157.003906 143.402344 156.660156 143.65625 C 156.316406 143.898438 155.777344 144.019531 155.035156 144.019531 C 155.035156 144.019531 155.03125 144.019531 155.03125 144.019531 C 154.289062 144.019531 153.785156 143.839844 153.527344 143.484375 C 153.269531 143.144531 153.144531 142.527344 153.144531 141.648438 L 153.160156 136.195312 C 153.167969 135.574219 153.253906 135.082031 153.421875 134.734375 C 153.667969 134.175781 154.34375 133.890625 155.425781 133.890625 C 155.425781 133.890625 155.425781 133.890625 155.433594 133.890625 C 156.042969 133.984375 156.574219 134.214844 157.019531 134.582031 C 157.136719 134.824219 157.199219 135.347656 157.191406 136.144531 L 157.191406 137.273438 L 160.539062 137.277344 L 160.542969 136.386719 C 160.535156 135.871094 160.496094 135.421875 160.433594 135.039062 C 160.257812 134.167969 159.792969 133.5 159.046875 133.058594 C 158.28125 132.613281 157.035156 132.386719 155.300781 132.386719 C 155.296875 132.386719 155.292969 132.386719 155.285156 132.386719 Z M 169.746094 132.394531 C 168.753906 132.394531 167.894531 132.5 167.136719 132.710938 C 165.28125 133.214844 164.347656 134.515625 164.34375 136.597656 L 164.332031 141.136719 C 164.324219 142.269531 164.519531 143.164062 164.914062 143.824219 C 165.621094 144.96875 167.273438 145.53125 169.871094 145.539062 C 169.875 145.539062 169.875 145.539062 169.878906 145.539062 C 171.660156 145.539062 173.011719 145.253906 173.949219 144.691406 C 174.894531 144.128906 175.367188 142.945312 175.371094 141.144531 L 175.382812 136.601562 C 175.394531 135.558594 175.171875 134.699219 174.730469 134.019531 C 174.011719 132.945312 172.355469 132.402344 169.757812 132.394531 C 169.753906 132.394531 169.753906 132.394531 169.746094 132.394531 Z M 270.175781 132.476562 C 269.1875 132.476562 268.3125 132.578125 267.566406 132.785156 C 265.710938 133.292969 264.777344 134.589844 264.773438 136.675781 L 264.753906 141.214844 C 264.753906 142.347656 264.949219 143.242188 265.34375 143.898438 C 266.050781 145.039062 267.699219 145.613281 270.300781 145.613281 C 270.300781 145.613281 270.308594 145.613281 270.3125 145.613281 C 272.085938 145.613281 273.441406 145.332031 274.378906 144.769531 C 275.324219 144.207031 275.796875 143.023438 275.800781 141.222656 L 275.8125 136.679688 C 275.8125 135.632812 275.597656 134.777344 275.15625 134.097656 C 274.441406 133.015625 272.785156 132.476562 270.1875 132.476562 C 270.183594 132.476562 270.175781 132.476562 270.175781 132.476562 Z M 256.179688 132.460938 C 254.472656 132.460938 253.152344 132.71875 252.222656 133.214844 C 251.292969 133.707031 250.832031 134.46875 250.824219 135.480469 C 250.816406 136.761719 251.894531 137.933594 254.050781 138.996094 C 254.199219 139.070312 254.496094 139.222656 254.945312 139.445312 C 255.398438 139.660156 255.683594 139.800781 255.800781 139.867188 C 257.464844 140.707031 258.285156 141.589844 258.285156 142.515625 C 258.28125 143.113281 258.125 143.527344 257.800781 143.769531 C 257.488281 144 256.980469 144.125 256.261719 144.125 C 256.261719 144.125 256.261719 144.125 256.253906 144.125 C 254.957031 144.125 254.304688 143.378906 254.308594 141.898438 L 254.308594 140.9375 L 251.007812 140.9375 L 251.007812 141.90625 C 251.003906 143.207031 251.449219 144.152344 252.34375 144.738281 C 253.238281 145.324219 254.574219 145.621094 256.371094 145.621094 C 256.375 145.621094 256.378906 145.621094 256.386719 145.621094 C 259.910156 145.621094 261.6875 144.585938 261.703125 142.511719 C 261.707031 141.136719 260.535156 139.867188 258.195312 138.710938 L 256.40625 137.84375 C 254.894531 137.070312 254.144531 136.265625 254.148438 135.433594 C 254.148438 134.902344 254.320312 134.527344 254.660156 134.308594 C 255.003906 134.078125 255.511719 133.96875 256.199219 133.96875 C 256.199219 133.96875 256.199219 133.96875 256.207031 133.96875 C 256.890625 133.96875 257.375 134.160156 257.660156 134.527344 C 257.9375 134.894531 258.074219 135.449219 258.070312 136.195312 L 258.070312 137.085938 L 261.300781 137.089844 L 261.304688 136.472656 C 261.308594 134.558594 260.554688 133.355469 259.03125 132.835938 C 258.296875 132.589844 257.355469 132.460938 256.195312 132.460938 C 256.191406 132.460938 256.183594 132.460938 256.179688 132.460938 Z M 285.332031 132.488281 C 284.34375 132.488281 283.46875 132.589844 282.722656 132.789062 C 280.867188 133.304688 279.933594 134.601562 279.929688 136.679688 L 279.914062 141.226562 C 279.910156 142.355469 280.105469 143.253906 280.5 143.910156 C 281.207031 145.046875 282.855469 145.625 285.457031 145.625 C 285.464844 145.625 285.464844 145.625 285.46875 145.625 C 287.242188 145.625 288.597656 145.347656 289.535156 144.785156 C 290.480469 144.21875 290.953125 143.035156 290.957031 141.230469 L 290.96875 136.691406 C 290.972656 135.648438 290.753906 134.789062 290.316406 134.109375 C 289.597656 133.03125 287.941406 132.492188 285.34375 132.488281 C 285.339844 132.488281 285.339844 132.488281 285.332031 132.488281 Z M 232.253906 132.445312 C 229.1875 132.445312 227.652344 133.8125 227.640625 136.550781 L 227.628906 140.226562 C 227.628906 141.445312 227.9375 142.417969 228.550781 143.144531 C 229.167969 143.867188 230.308594 144.226562 231.964844 144.234375 C 231.964844 144.234375 231.972656 144.234375 231.976562 144.234375 C 232.785156 144.234375 233.46875 144.152344 234.019531 144 C 234.546875 143.851562 234.96875 143.574219 235.261719 143.179688 L 235.269531 143.179688 L 235.261719 144.394531 C 235.261719 144.886719 235.042969 145.28125 234.617188 145.570312 C 234.183594 145.863281 233.523438 146 232.628906 146 C 232.625 146 232.625 146 232.625 146 C 231.269531 146 229.996094 145.792969 228.792969 145.371094 L 227.558594 146.566406 C 228.902344 147.113281 230.582031 147.386719 232.621094 147.394531 C 232.625 147.394531 232.628906 147.394531 232.636719 147.394531 C 233.644531 147.394531 234.535156 147.316406 235.308594 147.167969 C 237.535156 146.742188 238.660156 145.765625 238.660156 144.242188 L 238.695312 132.605469 L 235.296875 132.601562 L 235.296875 133.542969 C 234.832031 132.8125 233.820312 132.445312 232.257812 132.445312 C 232.257812 132.445312 232.253906 132.445312 232.253906 132.445312 Z M 232.253906 132.445312 "/>
<path style=" stroke:none;fill-rule:nonzero;fill:rgb(58.039216%,58.039216%,58.039216%);fill-opacity:1;" d="M 227.917969 77.878906 C 227.488281 77.863281 227.082031 77.972656 226.699219 78.191406 L 170.285156 119.347656 C 169.828125 120.03125 170.246094 120.433594 171.558594 120.558594 C 172.1875 120.539062 172.640625 120.417969 172.902344 120.183594 L 227.894531 80.058594 L 278.820312 118.152344 C 279.566406 118.605469 280.417969 118.589844 281.371094 118.117188 C 281.699219 117.761719 281.675781 117.464844 281.308594 117.222656 L 229.199219 78.230469 C 228.847656 77.996094 228.453125 77.878906 228.023438 77.878906 "/>
<path style=" stroke:none;fill-rule:nonzero;fill:rgb(58.039216%,58.039216%,58.039216%);fill-opacity:1;" d="M 227.867188 78.199219 C 228.402344 78.230469 228.691406 78.375 228.730469 78.648438 C 228.667969 78.917969 228.386719 79.0625 227.871094 79.085938 C 227.355469 79.0625 227.066406 78.917969 227.015625 78.648438 C 227.0625 78.375 227.34375 78.230469 227.855469 78.199219 M 227.847656 76.617188 C 226.773438 76.625 225.847656 76.824219 225.082031 77.214844 C 224.332031 77.617188 223.941406 78.097656 223.9375 78.648438 C 223.957031 79.203125 224.34375 79.679688 225.085938 80.078125 C 225.871094 80.472656 226.804688 80.667969 227.878906 80.667969 C 228.960938 80.664062 229.886719 80.460938 230.65625 80.078125 C 231.410156 79.675781 231.789062 79.195312 231.804688 78.648438 C 231.785156 78.089844 231.40625 77.605469 230.660156 77.214844 C 229.875 76.820312 228.941406 76.617188 227.867188 76.617188 "/>
</g>
</svg>
