<?xml version="1.0" encoding="UTF-8"?>
<svg xmlns="http://www.w3.org/2000/svg" xmlns:xlink="http://www.w3.org/1999/xlink" width="233px" height="140px" viewBox="0 0 233 140" version="1.1">
<g id="surface1">
<path style=" stroke:none;fill-rule:nonzero;fill:rgb(81.568627%,50.196078%,12.156863%);fill-opacity:1;" d="M 67.800781 52.027344 C 65.941406 52.5 64.074219 53.429688 63.609375 54.085938 C 62.679688 55.199219 62.519531 55.253906 56.773438 54.972656 C 43.570312 54.371094 32.152344 58.332031 26.484375 65.570312 C 24.695312 67.800781 24.464844 68.699219 24.542969 72.800781 C 24.542969 76.957031 24.777344 77.800781 26.792969 80.269531 C 29.667969 83.816406 35.570312 87.402344 41.550781 89.183594 C 45.746094 90.398438 46.988281 90.527344 53.980469 90.527344 C 61.046875 90.527344 62.132812 90.398438 66.40625 89.128906 C 85.355469 83.441406 89.550781 69.160156 75.027344 60.199219 C 71.0625 57.816406 70.675781 57.074219 72.773438 55.628906 C 73.9375 54.871094 73.859375 54.832031 72.464844 54.832031 C 71.609375 54.832031 69.976562 55.253906 68.8125 55.816406 L 66.792969 56.746094 L 66.792969 55.816406 C 66.792969 55.253906 68.035156 53.996094 69.589844 52.972656 C 72.773438 50.871094 72.464844 50.730469 67.800781 52.027344 Z M 58.40625 56.65625 C 60.347656 56.839844 62.597656 56.839844 63.222656 56.601562 C 64.074219 56.328125 64.851562 56.417969 65.707031 56.886719 C 66.328125 57.300781 67.414062 57.628906 68.035156 57.628906 C 68.660156 57.628906 69.125 57.816406 69.125 58.097656 C 69.125 58.332031 70.910156 59.644531 73.085938 60.996094 C 75.335938 62.34375 77.976562 64.542969 78.910156 65.84375 C 82.402344 70.371094 82.09375 76.769531 78.132812 80.683594 L 76.34375 82.457031 L 76.734375 77.371094 C 77.042969 72.898438 76.890625 72.042969 75.414062 70.371094 C 74.5625 69.300781 72.929688 68.042969 71.765625 67.484375 C 67.179688 65.285156 59.804688 65.800781 56.152344 68.597656 L 54.058594 70.144531 L 51.183594 68.371094 C 46.132812 65.285156 38.988281 65.371094 34.25 68.597656 C 31.144531 70.746094 30.835938 71.628906 31.222656 77.472656 C 31.378906 80.171875 31.378906 82.371094 31.222656 82.371094 C 31.144531 82.371094 29.976562 81.058594 28.738281 79.425781 C 23.53125 72.84375 27.105469 64.167969 36.738281 59.871094 C 43.570312 56.886719 50.40625 55.855469 58.40625 56.65625 Z M 47.453125 68.128906 C 50.871094 69.199219 52.8125 71.457031 52.8125 74.300781 C 52.8125 75.871094 52.503906 76.769531 51.882812 76.769531 C 50.328125 76.769531 48.15625 78.257812 48.15625 79.285156 C 48.15625 79.84375 49.164062 81.011719 50.40625 81.902344 C 52.425781 83.34375 52.8125 83.488281 54.832031 83.070312 C 55.996094 82.785156 57.707031 81.902344 58.484375 81.058594 C 59.726562 79.753906 59.882812 79.285156 59.101562 78.300781 C 58.636719 77.65625 57.550781 77.042969 56.695312 76.902344 C 55.375 76.726562 55.144531 76.253906 55.144531 74.246094 C 55.144531 68.128906 65.316406 65.332031 71.996094 69.628906 C 74.484375 71.214844 74.5625 71.300781 74.5625 75.542969 C 74.5625 81.199219 73.238281 83.527344 68.34375 86.285156 C 64.074219 88.714844 60.347656 89.457031 52.96875 89.414062 C 43.960938 89.371094 36.816406 86.371094 34.019531 81.527344 C 33.554688 80.597656 33.085938 78.027344 33.007812 75.832031 C 33.007812 72.660156 33.316406 71.585938 34.5625 70.511719 C 37.746094 67.667969 42.871094 66.730469 47.453125 68.128906 Z M 56.695312 79.570312 C 56.695312 80.457031 54.753906 81.902344 53.589844 81.902344 C 52.734375 81.902344 50.480469 79.988281 50.480469 79.285156 C 50.480469 79.003906 51.261719 78.542969 52.269531 78.300781 C 54.445312 77.699219 56.695312 78.355469 56.695312 79.570312 Z M 56.695312 79.570312 "/>
<path style=" stroke:none;fill-rule:nonzero;fill:rgb(81.568627%,50.196078%,12.156863%);fill-opacity:1;" d="M 40.386719 72.097656 C 38.523438 73.226562 38.445312 74.101562 40.078125 75.085938 C 41.472656 75.972656 44.347656 76.070312 45.667969 75.269531 C 47.144531 74.386719 46.753906 72.699219 44.890625 71.914062 C 42.640625 70.984375 42.253906 70.984375 40.386719 72.097656 Z M 44.269531 73.730469 C 44.269531 74.101562 43.726562 74.429688 43.105469 74.429688 C 42.484375 74.429688 41.9375 74.101562 41.9375 73.730469 C 41.9375 73.355469 42.484375 73.027344 43.105469 73.027344 C 43.726562 73.027344 44.269531 73.355469 44.269531 73.730469 Z M 62.832031 72.042969 C 61.277344 72.800781 61.125 73.128906 61.746094 74.246094 C 63.144531 76.671875 69.125 76.199219 69.125 73.683594 C 69.125 72.753906 66.636719 71.167969 65.160156 71.167969 C 64.851562 71.167969 63.84375 71.585938 62.832031 72.042969 Z M 66.792969 73.457031 C 66.792969 74.101562 65.394531 74.527344 64.464844 74.199219 C 63.996094 74.011719 63.84375 73.683594 64.074219 73.457031 C 64.695312 72.898438 66.792969 72.898438 66.792969 73.457031 Z M 96.304688 67.300781 C 96.695312 68.042969 97.785156 70.328125 98.714844 72.425781 C 100.1875 75.832031 100.578125 76.300781 102.132812 76.300781 C 103.609375 76.300781 103.996094 75.925781 104.851562 73.355469 C 106.480469 68.414062 106.558594 68.457031 109.042969 74.996094 C 109.433594 75.925781 110.054688 76.300781 111.296875 76.300781 C 112.851562 76.300781 113.238281 75.832031 114.789062 72.199219 C 115.722656 69.957031 116.734375 67.667969 116.964844 67.058594 C 117.351562 66.226562 117.121094 66.027344 115.570312 66.027344 C 113.78125 66.027344 113.546875 66.269531 112.617188 69.527344 C 111.683594 72.898438 110.285156 74.300781 110.285156 71.914062 C 110.285156 71.257812 109.898438 69.726562 109.355469 68.414062 C 108.65625 66.457031 108.1875 66.027344 106.714844 66.027344 C 105.238281 66.027344 104.851562 66.5 103.53125 69.628906 L 101.976562 73.269531 L 101.046875 70.472656 C 99.566406 66.171875 99.492188 66.027344 97.46875 66.027344 C 95.761719 66.027344 95.6875 66.171875 96.304688 67.300781 Z M 118.832031 66.972656 C 118.832031 67.574219 119.375 67.902344 120.382812 67.902344 C 121.394531 67.902344 121.9375 67.574219 121.9375 66.972656 C 121.9375 66.355469 121.394531 66.027344 120.382812 66.027344 C 119.375 66.027344 118.832031 66.355469 118.832031 66.972656 Z M 125.042969 71.167969 C 125.042969 75.972656 125.121094 76.300781 126.59375 76.300781 C 128.074219 76.300781 128.148438 75.972656 128.148438 71.167969 C 128.148438 66.355469 128.074219 66.027344 126.59375 66.027344 C 125.121094 66.027344 125.042969 66.355469 125.042969 71.167969 Z M 206.828125 69.070312 C 202.945312 70.042969 202.164062 73.226562 205.429688 75.128906 C 210.242188 78.074219 217.546875 74.855469 214.828125 70.984375 C 213.425781 68.972656 210.242188 68.230469 206.828125 69.070312 Z M 211.644531 72.285156 C 211.644531 74.429688 209.855469 75.457031 207.835938 74.484375 C 206.359375 73.730469 206.207031 71.585938 207.523438 70.800781 C 208.066406 70.472656 209.234375 70.273438 210.089844 70.328125 C 211.332031 70.417969 211.644531 70.839844 211.644531 72.285156 Z M 118.832031 72.570312 C 118.832031 75.972656 118.984375 76.300781 120.382812 76.300781 C 121.78125 76.300781 121.9375 75.972656 121.9375 72.570312 C 121.9375 69.160156 121.78125 68.832031 120.382812 68.832031 C 118.984375 68.832031 118.832031 69.160156 118.832031 72.570312 Z M 131.410156 69.398438 C 129.082031 70.800781 131.257812 72.570312 136.152344 73.226562 C 138.636719 73.597656 138.558594 74.574219 136.074219 74.800781 C 135.0625 74.902344 134.128906 74.667969 133.898438 74.246094 C 133.277344 73.316406 130.480469 73.269531 130.480469 74.15625 C 130.480469 75.085938 133.507812 76.300781 135.917969 76.300781 C 138.558594 76.300781 141.355469 75.085938 141.355469 73.972656 C 141.355469 72.941406 138.945312 71.914062 135.761719 71.457031 C 134.519531 71.257812 133.585938 70.929688 133.585938 70.65625 C 133.585938 69.816406 135.996094 69.628906 137.390625 70.417969 C 139.878906 71.769531 142.054688 70.839844 139.644531 69.398438 C 138.402344 68.644531 132.65625 68.644531 131.410156 69.398438 Z M 144.460938 69.855469 C 142.285156 71.300781 142.441406 73.730469 144.847656 75.128906 C 150.675781 78.628906 158.753906 73.355469 153.238281 69.628906 C 151.449219 68.457031 146.476562 68.542969 144.460938 69.855469 Z M 151.605469 71.402344 C 152.304688 72.285156 152.226562 72.753906 151.140625 73.730469 C 150.441406 74.386719 149.351562 74.902344 148.730469 74.902344 C 147.414062 74.902344 146.011719 73.5 146.011719 72.242188 C 146.011719 70.144531 150.132812 69.527344 151.605469 71.402344 Z M 157.429688 72.425781 C 157.507812 75.699219 157.742188 76.070312 159.140625 76.199219 C 160.535156 76.34375 160.691406 76.070312 160.925781 73.402344 C 161.15625 70.601562 161.234375 70.472656 163.101562 70.472656 C 164.964844 70.472656 165.042969 70.601562 165.277344 73.355469 C 165.507812 75.925781 165.742188 76.300781 166.980469 76.300781 C 168.382812 76.300781 168.535156 75.972656 168.535156 73.457031 C 168.535156 69.902344 167.605469 68.832031 164.65625 68.832031 C 163.410156 68.832031 162.167969 69.015625 161.9375 69.300781 C 161.703125 69.527344 161.078125 69.769531 160.691406 69.769531 C 160.226562 69.769531 160.148438 69.527344 160.382812 69.300781 C 160.613281 69.015625 160.070312 68.832031 159.0625 68.832031 C 157.351562 68.832031 157.273438 68.972656 157.429688 72.425781 Z M 177.082031 69.527344 C 177.082031 70 177.933594 70.230469 179.800781 70.230469 C 181.273438 70.230469 182.519531 70.371094 182.519531 70.558594 C 182.519531 70.746094 181.039062 71.769531 179.332031 72.84375 C 174.828125 75.597656 175.449219 76.300781 182.519531 76.300781 C 187.5625 76.300781 187.953125 76.199219 187.953125 75.316406 C 187.953125 74.386719 187.640625 74.339844 184.457031 74.527344 C 182.519531 74.667969 180.964844 74.714844 180.964844 74.628906 C 180.964844 74.527344 182.363281 73.597656 184.070312 72.472656 C 188.652344 69.488281 188.34375 68.832031 182.128906 68.832031 C 178.167969 68.832031 177.082031 68.972656 177.082031 69.527344 Z M 191.0625 69.769531 C 188.496094 71.300781 188.730469 73.730469 191.527344 75.230469 C 193.933594 76.582031 196.496094 76.582031 199.136719 75.316406 C 200.691406 74.574219 201.15625 73.972656 201.15625 72.515625 C 201.15625 70.183594 199.058594 68.832031 195.332031 68.832031 C 193.621094 68.832031 191.992188 69.199219 191.0625 69.769531 Z M 197.660156 72.285156 C 197.660156 74.429688 195.875 75.457031 193.855469 74.484375 C 192.613281 73.828125 192.148438 71.128906 193.15625 70.511719 C 193.464844 70.328125 194.632812 70.230469 195.71875 70.328125 C 197.429688 70.472656 197.660156 70.699219 197.660156 72.285156 Z M 197.660156 72.285156 "/>
</g>
</svg>
